<svg width="17" height="16" viewBox="0 0 17 16" fill="none" xmlns="http://www.w3.org/2000/svg">
<path d="M12.3133 5.33328C12.3133 4.27242 11.8949 3.255 11.1502 2.50486C10.4055 1.75471 9.39548 1.33328 8.34231 1.33328C7.28915 1.33328 6.27912 1.75471 5.53442 2.50486C4.78972 3.255 4.37135 4.27242 4.37135 5.33328C4.37135 9.99995 2.38586 11.3333 2.38586 11.3333H14.2988C14.2988 11.3333 12.3133 9.99995 12.3133 5.33328Z" stroke="#58667E" stroke-width="1.5" stroke-linecap="round" stroke-linejoin="round"/>
<path d="M9.48743 14C9.37108 14.2021 9.20407 14.3698 9.00312 14.4864C8.80218 14.6029 8.57436 14.6643 8.34247 14.6643C8.11058 14.6643 7.88276 14.6029 7.68182 14.4864C7.48088 14.3698 7.31387 14.2021 7.19751 14" stroke="#58667E" stroke-width="1.5" stroke-linecap="round" stroke-linejoin="round"/>
<ellipse cx="12.8096" cy="3.5" rx="2.48185" ry="2.5" fill="#FE5555"/>
</svg>
